{"title":"Todd Sampson's Body Hack - S01E02","uid":16008319,"size":382469105,"categoryP":"video","categoryS":"handheld","magnet":"?xt=urn:btih:886c061d965ec03ec56a5fa4db5e15d9b024a3e3&amp;dn=Todd+Sampson%27s+Body+Hack+-+S01E02&amp;tr=udp%3A%2F%2Ftracker.leechers-paradise.org%3A6969&amp;tr=udp%3A%2F%2Fzer0day.ch%3A1337&amp;tr=udp%3A%2F%2Fopen.demonii.com%3A1337&amp;tr=udp%3A%2F%2Ftracker.coppersurfer.tk%3A6969&amp;tr=udp%3A%2F%2Fexodus.desync.com%3A6969","seeders":11,"leechers":8,"uploader":"Bullrout","files":1,"time":1476205722,"description":"Todd Sampson's Body Hack - S01E02\r\n\r\nJoin Todd Sampson as he tackles some of the biggest challenges of his life using science as his guide. In this episode, Todd joins a traditional African nomadic tribe to live as a hunter-gatherer.\r\n\r\nComplete name                            : Todd Sampson's Body Hack - S01E02.mp4\r\nFormat                                   : MPEG-4\r\nFormat profile                           : Base Media / Version 2\r\nCodec ID                                 : mp42 (mp42/isom/avc1)\r\nFile size                                : 365 MiB\r\nDuration                                 : 45 min 47 s\r\nOverall bit rate mode                    : Variable\r\nOverall bit rate                         : 1 114 kb/s\r\n\r\n\r\nVideo\r\nID                                       : 2\r\nFormat                                   : AVC\r\nFormat/Info                              : Advanced Video Codec\r\nFormat profile                           :   \r\nFormat settings, CABAC                   : Yes\r\nFormat settings, ReFrames                : 3 frames\r\nCodec ID                                 : avc1\r\nCodec ID/Info                            : Advanced Video Coding\r\nDuration                                 : 45 min 47 s\r\nBit rate mode                            : Variable\r\nBit rate                                 : 982 kb/s\r\nMaximum bit rate                         : 1 000 kb/s\r\nWidth                                    : 720 pixels\r\nHeight                                   : 404 pixels\r\nDisplay aspect ratio                     : 16:9\r\nOriginal display aspect ratio            : 16:9\r\nFrame rate mode                          : Constant\r\nFrame rate                               : 25.000 FPS\r\nStandard                                 : PAL\r\nColor space                              : YUV\r\nChroma subsampling                       : 4:2:0\r\nBit depth                                : 8 bits\r\nScan type                                : Progressive\r\nBits/(Pixel*Frame)                       : 0.135\r\nStream size                              : 322 MiB (88%)\r\nWriting library                          : x264 core 112\r\nColor range                              : Limited\r\nColor primaries                          : BT.601 PAL\r\nTransfer characteristics                 : BT.470 System B, BT.470 System G\r\nMatrix coefficients                      : BT.601\r\n\r\nAudio\r\nID                                       : 1\r\nFormat                                   : AAC\r\nFormat/Info                              : Advanced Audio Codec\r\nFormat profile                           : LC\r\nCodec ID                                 : 40\r\nDuration                                 : 45 min 47 s\r\nBit rate mode                            : Variable\r\nBit rate                                 : 128 kb/s\r\nMaximum bit rate                         : 576 kb/s\r\nChannel(s)                               : 2 channels\r\nChannel positions                        : Front: L R\r\nSampling rate                            : 48.0 kHz\r\nFrame rate                               : 46.875 FPS (1024 spf)\r\nCompression mode                         : Lossy\r\nStream size                              : 41.9 MiB (11%)","torrent":{"xt":"urn:btih:886c061d965ec03ec56a5fa4db5e15d9b024a3e3","amp;dn":"Todd+Sampson%27s+Body+Hack+-+S01E02","amp;tr":["udp%3A%2F%2Ftracker.leechers-paradise.org%3A6969","udp%3A%2F%2Fzer0day.ch%3A1337","udp%3A%2F%2Fopen.demonii.com%3A1337","udp%3A%2F%2Ftracker.coppersurfer.tk%3A6969","udp%3A%2F%2Fexodus.desync.com%3A6969"],"infoHash":"886c061d965ec03ec56a5fa4db5e15d9b024a3e3","infoHashBuffer":{"type":"Buffer","data":[136,108,6,29,150,94,192,62,197,106,95,164,219,94,21,217,176,36,163,227]},"announce":[],"urlList":[]}}